<?xml version="1.0" standalone="no"?>
<!DOCTYPE svg PUBLIC "-//W3C//DTD SVG 20010904//EN"
 "http://www.w3.org/TR/2001/REC-SVG-20010904/DTD/svg10.dtd">
<svg version="1.0" xmlns="http://www.w3.org/2000/svg"
 width="512.000000pt" height="512.000000pt" viewBox="0 0 512.000000 512.000000"
 preserveAspectRatio="xMidYMid meet">

<g transform="translate(0.000000,512.000000) scale(0.100000,-0.100000)"
fill="#000000" stroke="none">
<path d="M1875 5111 c-90 -22 -187 -100 -260 -211 -131 -197 -247 -546 -314
-945 -56 -327 -54 -299 -58 -1125 -3 -562 -1 -791 7 -835 32 -166 150 -327
303 -413 54 -31 169 -71 216 -74 14 -1 -136 -5 -334 -8 -291 -5 -375 -10 -440
-24 -253 -56 -450 -162 -626 -336 -249 -247 -371 -554 -368 -930 l1 -115 13
60 c7 33 39 123 71 199 50 120 65 148 115 200 129 138 349 220 629 235 l125 6
30 92 c17 50 38 101 49 112 10 11 41 28 70 38 48 17 131 18 1456 18 1325 0
1408 -1 1456 -18 29 -10 60 -27 70 -38 11 -11 33 -62 49 -112 l30 -92 120 -6
c282 -15 484 -87 621 -224 66 -66 73 -78 128 -210 32 -77 64 -167 71 -200 l13
-60 1 115 c2 233 -36 407 -129 595 -130 264 -318 449 -584 576 -209 99 -331
119 -761 120 -309 1 -318 1 -250 15 185 40 352 173 428 341 60 134 58 110 54
965 -3 781 -4 783 -29 958 -121 816 -342 1287 -625 1335 l-43 7 0 -366 c0
-393 -2 -410 -53 -464 -49 -53 -40 -52 -567 -52 -527 0 -518 -1 -567 52 -51
54 -53 71 -53 463 0 405 6 373 -65 356z m267 -1783 c31 -15 77 -45 102 -68 51
-48 105 -146 113 -209 7 -49 -9 -66 -103 -112 -85 -41 -164 -47 -277 -20 -48
11 -102 28 -119 37 -46 24 -126 102 -155 151 -33 57 -26 96 28 157 70 79 118
97 254 92 83 -2 111 -7 157 -28z m1158 8 c79 -41 148 -134 135 -183 -16 -66
-98 -154 -182 -196 -72 -37 -194 -61 -266 -53 -65 7 -162 47 -209 88 -28 23
-28 24 -15 73 39 145 142 252 274 285 62 15 223 7 263 -14z m-107 -899 c73
-55 72 -49 72 -453 l0 -360 -28 -43 c-55 -83 -34 -81 -677 -81 -643 0 -622 -2
-677 81 l-28 42 -3 338 c-3 360 0 397 43 447 54 64 31 62 676 59 l586 -2 36
-28z"/>
<path d="M2161 2139 c23 -35 103 -86 162 -104 168 -50 416 -37 545 29 46 24
110 81 101 91 -3 2 -37 -2 -75 -10 -222 -47 -508 -42 -724 12 -24 6 -24 6 -9
-18z"/>
<path d="M2367 604 c-191 -34 -427 -170 -427 -246 0 -34 29 -76 60 -87 37 -12
61 -5 127 42 47 34 111 69 157 87 23 8 23 7 18 -35 -4 -37 -1 -47 21 -69 32
-32 83 -35 121 -5 l26 20 0 -76 c0 -107 23 -144 90 -144 67 0 90 37 90 144 l0
76 30 -22 c75 -56 165 10 136 99 -7 20 -5 21 18 12 47 -18 121 -58 171 -94 62
-45 110 -48 145 -11 30 32 32 85 5 116 -35 39 -163 117 -245 148 -151 59 -369
77 -543 45z"/>
</g>
</svg>
