<?xml version="1.0" standalone="no"?>
<!DOCTYPE svg PUBLIC "-//W3C//DTD SVG 20010904//EN"
 "http://www.w3.org/TR/2001/REC-SVG-20010904/DTD/svg10.dtd">
<svg version="1.0" xmlns="http://www.w3.org/2000/svg"
 width="512.000000pt" height="512.000000pt" viewBox="0 0 512.000000 512.000000"
 preserveAspectRatio="xMidYMid meet">

<g transform="translate(0.000000,512.000000) scale(0.100000,-0.100000)"
fill="#000000" stroke="none">
<path d="M2174 4980 c-47 -19 -54 -44 -54 -201 l0 -147 -202 -4 c-236 -5 -278
-16 -404 -100 -116 -78 -189 -174 -247 -325 -22 -57 -22 -65 -25 -768 -3 -782
-3 -784 58 -914 91 -192 283 -328 492 -348 l68 -6 0 -223 0 -224 -352 0 c-337
0 -354 -1 -395 -21 -60 -29 -93 -76 -112 -162 l-17 -72 -59 -2 c-317 -14 -544
-129 -695 -353 -66 -98 -94 -173 -154 -425 -56 -233 -76 -356 -76 -476 l0 -66
533 -6 c689 -9 3366 -9 4056 0 l534 6 -6 121 c-8 146 -14 181 -82 458 -59 240
-91 319 -176 432 -70 92 -165 168 -274 221 -112 54 -194 74 -337 83 l-112 7
-13 65 c-16 80 -54 136 -112 167 -44 23 -47 23 -398 23 l-353 0 0 224 0 223
68 6 c261 25 479 220 537 482 14 61 15 165 13 780 -3 703 -3 711 -25 768 -58
151 -131 247 -247 325 -126 84 -168 95 -403 100 l-203 4 0 148 c0 143 -1 150
-24 177 l-24 28 -379 2 c-208 1 -388 -2 -399 -7z m-62 -1446 c60 -54 101 -67
180 -61 l67 6 14 -43 c9 -26 13 -62 10 -89 l-5 -46 -56 -7 c-117 -14 -264 38
-341 121 -43 47 -49 73 -28 115 30 59 96 61 159 4z m1043 16 c13 -14 20 -34
20 -61 0 -37 -6 -47 -50 -87 -88 -80 -215 -122 -327 -108 l-55 7 -6 44 c-4 27
-1 60 9 88 l15 46 67 -6 c79 -6 120 7 178 60 22 19 46 37 54 40 25 10 74 -2
95 -23z"/>
</g>
</svg>
