<?xml version="1.0" standalone="no"?>
<!DOCTYPE svg PUBLIC "-//W3C//DTD SVG 20010904//EN"
 "http://www.w3.org/TR/2001/REC-SVG-20010904/DTD/svg10.dtd">
<svg version="1.0" xmlns="http://www.w3.org/2000/svg"
 width="512.000000pt" height="512.000000pt" viewBox="0 0 512.000000 512.000000"
 preserveAspectRatio="xMidYMid meet">

<g transform="translate(0.000000,512.000000) scale(0.100000,-0.100000)"
fill="#000000" stroke="none">
<path d="M2174 5110 c-47 -19 -54 -44 -54 -202 l0 -148 -175 0 c-150 0 -275
-12 -275 -26 0 -2 21 -30 47 -62 51 -63 97 -154 118 -233 13 -47 12 -50 -3
-43 -9 4 -35 9 -58 12 -33 3 -46 -1 -71 -22 l-30 -26 -23 63 c-24 66 -55 114
-118 185 l-39 43 -51 -46 c-66 -60 -138 -168 -171 -258 l-26 -72 -3 -501 -3
-501 28 -12 c16 -6 107 -90 203 -186 l174 -174 43 107 c66 166 59 155 85 140
13 -6 50 -19 83 -29 40 -11 59 -21 57 -30 -2 -8 -28 -76 -58 -151 -30 -75 -54
-139 -54 -142 0 -2 43 -19 95 -36 106 -35 135 -61 135 -117 0 -46 -37 -83 -83
-83 -18 0 -73 13 -121 30 l-87 29 -10 -27 c-17 -45 -38 -132 -45 -186 -4 -28
-11 -56 -16 -63 -12 -15 41 -31 130 -40 l62 -6 0 -223 0 -224 -90 0 c-49 0
-90 -2 -90 -5 0 -2 -11 -74 -25 -159 -14 -85 -25 -163 -25 -174 0 -17 7 -18
103 -14 74 3 119 0 166 -12 35 -9 65 -15 67 -13 1 1 10 57 19 123 8 67 21 152
28 190 l12 69 90 0 c105 0 98 19 67 -165 -11 -69 -23 -141 -25 -160 l-5 -36
121 1 c67 0 139 -4 159 -8 l38 -8 2 188 3 188 85 0 85 0 3 -188 2 -188 38 8
c20 4 92 8 159 8 l121 -1 -5 36 c-2 19 -14 91 -25 160 -31 184 -38 165 67 165
l90 0 12 -69 c7 -38 20 -123 28 -190 9 -66 18 -122 19 -123 2 -2 32 4 67 13
47 12 92 15 166 12 96 -4 103 -3 103 14 0 11 -11 89 -25 174 -14 85 -25 157
-25 159 0 3 -40 5 -90 5 l-90 0 0 224 0 223 63 6 c88 9 141 25 129 40 -5 7
-12 35 -16 63 -7 54 -28 141 -45 186 l-10 27 -87 -29 c-48 -17 -103 -30 -121
-30 -46 0 -83 37 -83 83 0 56 29 82 135 117 52 17 95 34 95 36 0 3 -24 67 -54
142 -30 75 -56 143 -58 151 -2 9 17 19 57 30 33 10 70 23 83 29 26 15 19 26
85 -140 l43 -107 174 174 c96 96 187 180 203 186 l28 12 -3 501 -3 501 -29 75
c-36 95 -102 196 -168 255 l-51 46 -39 -43 c-65 -72 -95 -121 -119 -189 l-22
-64 -29 28 c-24 25 -34 28 -71 25 -23 -3 -50 -8 -59 -12 -15 -7 -16 -4 -3 43
21 79 67 170 118 233 26 32 47 60 47 62 0 14 -125 26 -275 26 l-175 0 0 149
c0 144 -1 151 -24 178 l-24 28 -379 2 c-208 1 -388 -2 -399 -7z m476 -525 l0
-185 37 -41 c44 -49 123 -104 213 -149 36 -18 67 -34 69 -36 3 -3 -110 -144
-116 -144 -9 0 -93 46 -141 76 -29 19 -55 34 -57 34 -3 0 -5 -45 -5 -99 0 -91
-2 -102 -24 -128 -34 -39 -98 -39 -132 0 -22 26 -24 37 -24 128 0 54 -2 99 -5
99 -2 0 -28 -15 -57 -34 -48 -30 -132 -76 -141 -76 -5 0 -119 141 -116 144 2
1 33 17 69 36 94 48 170 102 213 149 l37 41 0 185 0 185 90 0 90 0 0 -185z
m-779 -416 c80 -52 198 -171 268 -273 65 -95 151 -261 151 -292 0 -36 -45
-150 -76 -196 -82 -119 -231 -160 -359 -100 -68 33 -117 83 -151 156 -21 45
-24 65 -24 181 0 143 19 292 49 400 24 86 57 165 69 165 5 0 38 -19 73 -41z
m1482 -16 c56 -125 87 -310 87 -513 0 -121 -1 -129 -30 -188 -36 -71 -83 -115
-158 -150 -44 -20 -65 -23 -120 -20 -75 4 -121 23 -181 74 -48 41 -108 157
-117 224 -6 42 -1 56 49 152 70 135 132 223 227 319 64 66 188 159 210 159 4
0 19 -26 33 -57z m-957 -918 l37 -55 127 0 127 0 37 55 c20 30 37 55 39 55 1
0 32 -28 68 -63 l67 -62 -29 -40 c-15 -22 -28 -49 -29 -61 0 -11 36 -182 80
-379 44 -197 80 -367 80 -377 0 -16 -10 -18 -89 -18 l-89 0 -21 93 c-12 50
-47 209 -80 352 l-58 260 -103 0 -103 0 -59 -260 c-32 -143 -67 -302 -79 -352
l-21 -93 -89 0 c-79 0 -89 2 -89 18 0 10 36 180 80 377 44 197 80 368 80 379
-1 12 -14 39 -29 61 l-29 40 62 61 c33 33 64 61 68 62 4 1 24 -23 44 -53z"/>
<path d="M1240 2944 c0 -191 60 -343 185 -468 l70 -70 7 30 c3 16 19 76 33
134 15 58 29 114 32 125 3 15 -35 59 -162 185 l-165 165 0 -101z"/>
<path d="M3711 2876 l-164 -164 33 -123 c17 -68 35 -137 39 -153 l6 -30 72 72
c125 125 187 285 181 470 l-3 92 -164 -164z"/>
<path d="M1112 1829 c-62 -31 -93 -77 -111 -167 l-16 -77 -135 -7 c-152 -7
-214 -23 -343 -90 -97 -51 -214 -158 -277 -255 -84 -127 -96 -171 -145 -522
-25 -174 -51 -352 -59 -396 -8 -44 -17 -133 -21 -197 l-7 -118 616 0 c339 0
616 1 617 3 0 1 13 91 28 199 l27 198 -50 17 c-36 13 -82 18 -158 18 -106 0
-107 0 -188 -42 -89 -47 -120 -53 -120 -25 0 44 31 186 42 193 7 4 44 18 83
31 59 19 90 23 195 22 84 -1 141 -6 173 -16 26 -9 47 -15 48 -15 3 9 37 262
35 264 -1 1 -31 10 -66 19 -44 11 -91 15 -151 12 -74 -3 -96 -9 -163 -42 -78
-38 -116 -41 -116 -9 0 30 22 148 31 165 26 50 285 86 414 57 33 -7 64 -13 70
-14 10 0 47 234 39 247 -10 16 -111 38 -175 38 -75 0 -128 -16 -189 -56 -41
-27 -93 -36 -109 -18 -6 5 -3 46 6 96 l16 87 56 24 c31 14 74 30 96 36 58 16
201 13 269 -4 33 -9 60 -14 61 -13 2 2 16 87 32 191 l29 187 -170 0 c-154 0
-175 -2 -214 -21z"/>
<path d="M3653 1663 c16 -104 30 -189 32 -191 1 -1 28 4 61 13 67 17 198 19
264 4 25 -6 71 -22 102 -36 l57 -25 11 -72 c18 -108 18 -109 -12 -120 -23 -8
-36 -4 -85 26 -78 47 -114 58 -193 58 -63 0 -164 -22 -174 -38 -6 -10 25 -234
33 -244 3 -4 31 0 61 8 113 29 303 13 400 -34 33 -16 36 -22 47 -87 6 -38 12
-80 12 -92 1 -38 -32 -37 -115 3 -67 33 -89 39 -163 42 -60 3 -107 -1 -151
-12 -35 -9 -65 -18 -66 -19 -2 -2 32 -255 35 -264 1 0 22 6 49 15 31 10 88 15
172 16 105 1 136 -3 195 -22 39 -13 76 -27 83 -31 11 -7 42 -149 42 -193 0
-27 -34 -22 -103 16 -82 45 -152 60 -246 53 -99 -7 -155 -27 -159 -56 -3 -20
31 -303 43 -358 l5 -23 616 0 616 0 -7 118 c-4 64 -13 153 -21 197 -8 44 -34
222 -59 396 -49 351 -61 395 -145 522 -63 97 -180 204 -277 255 -129 67 -191
83 -342 90 l-135 7 -16 77 c-19 90 -51 137 -113 167 -39 19 -61 21 -213 21
l-170 0 29 -187z"/>
<path d="M1645 1301 l-50 -18 -12 -79 c-6 -43 -14 -95 -17 -116 l-6 -36 118 5
c105 5 182 -2 233 -22 13 -5 17 12 26 117 12 138 16 130 -61 153 -65 20 -169
18 -231 -4z"/>
<path d="M2179 1304 l-47 -16 -6 -67 c-4 -36 -9 -91 -13 -122 l-5 -57 53 10
c55 10 246 5 287 -7 22 -7 22 -7 22 114 l0 122 -37 16 c-55 23 -196 27 -254 7z"/>
<path d="M2710 1302 l-55 -18 -3 -123 -3 -123 23 7 c41 12 232 17 287 7 l53
-10 -6 67 c-4 36 -9 91 -13 123 l-5 56 -57 16 c-73 20 -151 19 -221 -2z"/>
<path d="M3232 1302 c-29 -11 -54 -21 -56 -23 -2 -2 1 -59 7 -127 9 -105 13
-122 26 -117 52 20 128 27 234 22 118 -5 119 -5 114 16 -3 12 -11 64 -18 115
l-12 93 -36 15 c-58 26 -196 28 -259 6z"/>
<path d="M1596 865 c-27 -8 -52 -17 -57 -22 -9 -9 -43 -233 -36 -239 2 -2 28
0 57 6 74 14 173 12 254 -5 38 -8 71 -14 72 -12 2 1 8 56 13 122 10 106 9 121
-5 132 -44 32 -209 42 -298 18z"/>
<path d="M2159 866 c-26 -7 -51 -16 -57 -20 -6 -3 -13 -50 -17 -104 -3 -53 -8
-109 -11 -123 l-5 -26 63 13 c98 21 233 16 321 -12 16 -5 17 5 17 121 l0 126
-37 16 c-51 21 -213 27 -274 9z"/>
<path d="M2727 870 c-79 -20 -77 -16 -77 -156 0 -115 1 -125 18 -120 87 28
222 33 318 13 l61 -13 -5 65 c-14 187 -13 184 -57 200 -49 17 -206 24 -258 11z"/>
<path d="M3277 866 c-27 -7 -52 -17 -57 -22 -8 -8 5 -242 14 -251 1 -2 34 4
72 12 81 17 180 19 254 5 29 -6 55 -8 57 -6 7 6 -27 230 -36 239 -33 33 -215
47 -304 23z"/>
<path d="M1562 425 c-76 -21 -90 -31 -97 -68 -10 -57 -45 -320 -45 -339 0 -17
14 -18 214 -18 l214 0 6 62 c3 35 8 110 11 168 3 58 8 119 11 136 4 30 2 33
-43 49 -69 23 -205 29 -271 10z"/>
<path d="M2155 427 c-27 -7 -60 -19 -72 -25 -24 -13 -29 -42 -38 -227 -4 -66
-8 -132 -11 -148 l-6 -27 221 0 221 0 0 198 0 199 -52 17 c-69 23 -199 29
-263 13z"/>
<path d="M2775 434 c-11 -3 -44 -12 -72 -21 l-53 -16 0 -198 0 -199 220 0 219
0 -5 47 c-2 27 -8 113 -14 193 -10 158 -10 160 -80 181 -40 12 -185 21 -215
13z"/>
<path d="M3365 434 c-11 -3 -44 -12 -73 -21 -49 -15 -53 -18 -48 -42 3 -14 8
-80 11 -146 3 -66 8 -144 12 -172 l5 -53 214 0 c197 0 214 1 214 18 0 32 -48
360 -54 370 -18 30 -216 62 -281 46z"/>
</g>
</svg>
