<?xml version="1.0" standalone="no"?>
<!DOCTYPE svg PUBLIC "-//W3C//DTD SVG 20010904//EN"
 "http://www.w3.org/TR/2001/REC-SVG-20010904/DTD/svg10.dtd">
<svg version="1.0" xmlns="http://www.w3.org/2000/svg"
 width="512.000000pt" height="512.000000pt" viewBox="0 0 512.000000 512.000000"
 preserveAspectRatio="xMidYMid meet">

<g transform="translate(0.000000,512.000000) scale(0.100000,-0.100000)"
fill="#000000" stroke="none">
<path d="M2285 5110 c-526 -44 -935 -192 -1170 -425 -131 -130 -205 -280 -226
-458 -11 -101 -5 -524 12 -762 28 -393 101 -642 219 -748 27 -25 63 -50 79
-55 l29 -10 5 446 c4 511 8 537 92 707 109 219 292 355 478 355 124 0 221 -59
274 -168 37 -75 39 -187 4 -274 l-22 -58 -103 0 c-115 0 -180 -17 -216 -55
-13 -14 -21 -28 -17 -31 3 -3 29 -1 57 5 130 28 317 -2 460 -74 57 -29 75 -34
81 -23 13 20 11 61 -5 84 -14 20 -12 22 39 43 105 44 169 132 205 282 32 134
84 200 191 240 90 34 361 23 548 -23 246 -60 440 -196 523 -368 60 -123 61
-141 68 -630 l5 -445 44 75 c136 229 230 488 277 765 24 141 25 438 1 560 -61
307 -183 502 -372 589 -44 21 -90 42 -102 48 -12 6 -75 55 -139 109 -65 54
-151 117 -192 140 -124 71 -297 122 -502 149 -115 15 -490 21 -625 10z"/>
<path d="M2995 3706 c-153 -38 -267 -157 -220 -230 l18 -27 56 55 c32 29 86
69 122 87 54 27 78 33 149 37 105 5 181 -20 248 -82 l45 -41 -6 39 c-19 121
-235 206 -412 162z"/>
<path d="M2042 3463 c-99 -48 -129 -189 -62 -282 41 -56 80 -74 150 -69 101 7
160 75 160 184 0 137 -131 225 -248 167z m159 -29 c53 -56 11 -144 -67 -144
-92 0 -117 128 -32 164 39 17 71 10 99 -20z"/>
<path d="M2916 3457 c-57 -36 -86 -89 -86 -160 0 -113 59 -179 165 -185 72 -4
110 16 152 79 52 79 32 198 -44 256 -51 39 -134 43 -187 10z m139 -30 c23 -33
19 -84 -10 -112 -53 -53 -149 -15 -149 58 0 41 33 84 68 89 31 5 74 -11 91
-35z"/>
<path d="M2935 2708 c-110 -46 -291 -98 -395 -114 -52 -7 -160 -14 -240 -14
l-145 -1 34 -29 c161 -138 657 -52 794 137 17 24 29 45 26 47 -2 2 -35 -10
-74 -26z"/>
<path d="M1554 1320 c-47 -19 -68 -85 -43 -132 25 -46 56 -49 453 -47 401 2
421 0 513 -52 64 -35 97 -36 154 -5 92 52 133 56 531 56 392 0 423 3 447 48
18 34 13 79 -13 109 l-24 28 -359 3 c-387 3 -470 -3 -585 -44 l-68 -25 -67 24
c-38 14 -100 30 -140 36 -85 13 -767 14 -799 1z"/>
<path d="M758 1310 c-252 -43 -460 -196 -574 -425 -35 -71 -56 -136 -99 -311
-62 -251 -71 -304 -80 -461 l-7 -113 354 0 354 0 133 648 c74 356 136 653 138
660 6 14 -138 15 -219 2z"/>
<path d="M4197 1059 c120 -584 195 -947 205 -1001 l12 -58 353 0 354 0 -6 108
c-9 158 -20 219 -80 465 -43 176 -63 241 -99 312 -78 156 -194 273 -348 351
-100 51 -197 74 -330 81 l-116 6 55 -264z"/>
<path d="M1974 883 l-160 -3 -202 -203 c-166 -167 -202 -208 -202 -231 0 -18
45 -102 126 -237 l125 -209 647 1 c356 1 638 3 627 6 -229 52 -399 109 -550
182 -229 112 -297 213 -209 311 48 53 154 105 246 120 159 27 390 -11 603
-100 131 -55 129 -54 149 -35 13 13 16 37 16 121 0 93 2 104 18 104 9 0 81
-64 160 -143 l142 -142 -120 -200 c-66 -110 -120 -206 -120 -213 0 -10 23 -12
97 -10 l96 3 123 205 c81 135 123 215 124 235 0 25 -29 58 -202 231 l-203 203
-585 4 c-322 2 -657 2 -746 0z m-138 -265 c-56 -127 -73 -311 -41 -447 9 -35
14 -65 12 -67 -1 -2 -46 70 -100 159 l-97 162 122 122 c68 68 124 123 125 123
1 0 -8 -24 -21 -52z"/>
</g>
</svg>
